<mxfile host="app.diagrams.net" modified="2023-03-30T06:00:49.875Z" agent="Mozilla/5.0 (Macintosh; Intel Mac OS X 10_15_7) AppleWebKit/537.36 (KHTML, like Gecko) Chrome/111.0.0.0 Safari/537.36" etag="qFZV018wTSbgSY2hlDrb" version="21.1.2" type="github">
  <diagram name="Page-1" id="-40lHsI0SEYWw1v3dgic">
    <mxGraphModel dx="2074" dy="1167" grid="1" gridSize="10" guides="1" tooltips="1" connect="1" arrows="1" fold="1" page="1" pageScale="1" pageWidth="850" pageHeight="1100" math="0" shadow="0">
      <root>
        <mxCell id="0" />
        <mxCell id="1" parent="0" />
        <mxCell id="TYvnKhLfXV3P5lAGY6A9-12" value="" style="edgeStyle=orthogonalEdgeStyle;rounded=0;orthogonalLoop=1;jettySize=auto;html=1;" edge="1" parent="1" source="TYvnKhLfXV3P5lAGY6A9-2" target="TYvnKhLfXV3P5lAGY6A9-4">
          <mxGeometry relative="1" as="geometry" />
        </mxCell>
        <mxCell id="TYvnKhLfXV3P5lAGY6A9-2" value="moragi/cli/commands.py" style="rounded=0;whiteSpace=wrap;html=1;fontSize=30;" vertex="1" parent="1">
          <mxGeometry x="254" y="221" width="342" height="40" as="geometry" />
        </mxCell>
        <mxCell id="TYvnKhLfXV3P5lAGY6A9-11" value="" style="edgeStyle=orthogonalEdgeStyle;rounded=0;orthogonalLoop=1;jettySize=auto;html=1;" edge="1" parent="1" source="TYvnKhLfXV3P5lAGY6A9-4" target="TYvnKhLfXV3P5lAGY6A9-5">
          <mxGeometry relative="1" as="geometry" />
        </mxCell>
        <mxCell id="TYvnKhLfXV3P5lAGY6A9-4" value="CJFreshMealClient" style="rounded=0;whiteSpace=wrap;html=1;fontSize=30;" vertex="1" parent="1">
          <mxGeometry x="295" y="341" width="260" height="40" as="geometry" />
        </mxCell>
        <mxCell id="TYvnKhLfXV3P5lAGY6A9-8" style="edgeStyle=orthogonalEdgeStyle;rounded=0;orthogonalLoop=1;jettySize=auto;html=1;" edge="1" parent="1" source="TYvnKhLfXV3P5lAGY6A9-5" target="TYvnKhLfXV3P5lAGY6A9-7">
          <mxGeometry relative="1" as="geometry" />
        </mxCell>
        <mxCell id="TYvnKhLfXV3P5lAGY6A9-5" value="SlackMessageBuilder" style="rounded=0;whiteSpace=wrap;html=1;fontSize=30;" vertex="1" parent="1">
          <mxGeometry x="275" y="461" width="300" height="40" as="geometry" />
        </mxCell>
        <mxCell id="TYvnKhLfXV3P5lAGY6A9-13" style="edgeStyle=orthogonalEdgeStyle;rounded=0;orthogonalLoop=1;jettySize=auto;html=1;" edge="1" parent="1" source="TYvnKhLfXV3P5lAGY6A9-7" target="TYvnKhLfXV3P5lAGY6A9-10">
          <mxGeometry relative="1" as="geometry" />
        </mxCell>
        <mxCell id="TYvnKhLfXV3P5lAGY6A9-7" value="&lt;font style=&quot;font-size: 30px;&quot;&gt;SlackMessageSender&lt;/font&gt;" style="rounded=0;whiteSpace=wrap;html=1;" vertex="1" parent="1">
          <mxGeometry x="275" y="581" width="300" height="40" as="geometry" />
        </mxCell>
        <mxCell id="TYvnKhLfXV3P5lAGY6A9-10" value="" style="shape=image;html=1;verticalAlign=top;verticalLabelPosition=bottom;labelBackgroundColor=#ffffff;imageAspect=0;aspect=fixed;image=https://cdn1.iconfinder.com/data/icons/social-media-circle-7/512/Circled_Slack_svg2-128.png" vertex="1" parent="1">
          <mxGeometry x="361" y="751" width="128" height="128" as="geometry" />
        </mxCell>
        <mxCell id="TYvnKhLfXV3P5lAGY6A9-14" value="&lt;font style=&quot;font-size: 20px;&quot;&gt;오늘 / 일주일 식단 정보 조회&lt;/font&gt;" style="text;html=1;align=center;verticalAlign=middle;resizable=0;points=[];autosize=1;strokeColor=none;fillColor=none;" vertex="1" parent="1">
          <mxGeometry x="555" y="341" width="250" height="40" as="geometry" />
        </mxCell>
        <mxCell id="TYvnKhLfXV3P5lAGY6A9-15" value="&lt;font style=&quot;font-size: 20px;&quot;&gt;식단 정보 (moragi/models)&lt;/font&gt;" style="text;html=1;align=center;verticalAlign=middle;resizable=0;points=[];autosize=1;strokeColor=none;fillColor=none;" vertex="1" parent="1">
          <mxGeometry x="425" y="400" width="250" height="40" as="geometry" />
        </mxCell>
        <mxCell id="TYvnKhLfXV3P5lAGY6A9-16" value="LunchWithPhotoMessageBuilder" style="rounded=0;whiteSpace=wrap;html=1;fontSize=14;" vertex="1" parent="1">
          <mxGeometry x="210" y="501" width="210" height="19" as="geometry" />
        </mxCell>
        <mxCell id="TYvnKhLfXV3P5lAGY6A9-17" value="TomorrowMenuMessageBuilder" style="rounded=0;whiteSpace=wrap;html=1;fontSize=14;" vertex="1" parent="1">
          <mxGeometry x="210" y="520" width="210" height="19" as="geometry" />
        </mxCell>
        <mxCell id="TYvnKhLfXV3P5lAGY6A9-18" value="..." style="rounded=0;whiteSpace=wrap;html=1;fontSize=14;" vertex="1" parent="1">
          <mxGeometry x="210" y="540.5" width="210" height="19" as="geometry" />
        </mxCell>
        <mxCell id="TYvnKhLfXV3P5lAGY6A9-20" value="&lt;span style=&quot;font-size: 20px;&quot;&gt;슬랙 메시지 블록 구성&lt;/span&gt;" style="text;html=1;align=center;verticalAlign=middle;resizable=0;points=[];autosize=1;strokeColor=none;fillColor=none;" vertex="1" parent="1">
          <mxGeometry x="425" y="509.5" width="200" height="40" as="geometry" />
        </mxCell>
      </root>
    </mxGraphModel>
  </diagram>
</mxfile>
